<svg xmlns="http://www.w3.org/2000/svg" version="1.1" xmlns:xlink="http://www.w3.org/1999/xlink" xmlns:svgjs="http://svgjs.dev/svgjs" width="1000" height="1125" viewBox="0 0 1000 1125"><g transform="matrix(1,0,0,1,1.7053025658242404e-13,0)"><svg viewBox="0 0 320 360" data-background-color="#ffffff" preserveAspectRatio="xMidYMid meet" height="1125" width="1000" xmlns="http://www.w3.org/2000/svg" xmlns:xlink="http://www.w3.org/1999/xlink"><g id="tight-bounds" transform="matrix(1,0,0,1,0,0)"><svg viewBox="0 0 320 360" height="360" width="320"><g><svg></svg></g><g><svg viewBox="0 0 320 360" height="360" width="320"><g><path xmlns="http://www.w3.org/2000/svg" d="M20.961 227.22l3.726 4.658-1.863-6.056c-0.466-2.795-3.726 0.466-1.863 1.398M25.153 224.425c1.397 2.329 2.795 4.658 2.795 6.987 0 3.261 2.795 4.658 5.123 5.589-3.261-3.726-5.124-13.974-7.918-12.576M204.017 26.929c7.918 0 15.371-0.932 23.756 0.931 20.495 5.124 37.729 15.371 49.374 29.811l32.606 52.169c1.397 13.042 4.192 27.482 3.726 43.319 3.261 0 2.795-4.658 6.521-5.59-3.726 9.316-5.59 20.961-6.521 34.469-2.329-7.453 0-18.632 0.466-24.687-3.261 5.124-5.124 1.397-5.124-0.932 0.466-3.726-1.397-3.261-2.795-4.658-5.124-4.658-8.384-9.782-12.11-17.7 2.329-6.055 2.795-14.905-4.658-19.563-2.329-1.397-5.124-3.726-6.521-7.453-1.863-5.124-5.124-11.179-4.193-19.097 0.466-2.329-6.987 5.124-11.179 1.863-18.166-12.576-36.332-27.016-58.224-39.127-11.645 0-20.029-4.192-24.221-9.316-3.726-4.658-0.932-10.713 4.658-11.179 3.261 0 6.987-0.932 9.782 0.932 0.466-1.863 2.329-4.192 4.657-4.192M157.904 16.215l0.932 0.466c4.658 0.932 6.987 7.453 12.11 5.124 0 3.261 0.466 6.521-0.466 8.85-1.397 3.726-5.59 3.726-8.85 3.726-31.208-1.863-49.374 11.179-68.471 22.358-5.124 3.261-10.713 5.59-14.906 9.782-20.029 18.632-41.921 35.866-47.045 70.335l-4.192 38.195c-0.466 4.192-5.124 8.384-4.192 13.508l3.26 22.824c-3.261-3.261-5.124 0.932-4.192 2.795 0.466 1.397 2.329 6.055 5.124 1.863 3.726 6.987 7.453 20.495 12.576 26.55 15.837 18.632 36.332 35.4 53.101 52.169 4.192-0.932 7.453-0.932 8.384-3.727 1.397 2.795-1.397 5.59-3.726 6.056 7.453 4.658 15.837 8.85 27.016 9.781 14.44 0.932 27.948 3.261 40.524 6.522 6.521-1.863 13.042-2.795 20.029-3.261 2.329 0 3.726-3.726 6.521-4.658l0.466-4.658c2.795 4.192 2.329-1.397 0.466-4.192 3.261 2.795 4.192 5.124 5.589 6.987 0-1.397 3.726-6.521 3.727-0.466l0.931-6.055c1.397-0.932 1.863 5.124 3.261 0.931 1.397-4.192 4.192-0.932 6.987-2.329-0.932 1.863-0.466 5.59 2.794 3.261l3.727-3.261c2.329 5.59 6.055 3.261 7.918 2.329 20.495-13.042 40.99-28.413 60.553-43.784l-0.466 6.055 2.329-7.453c2.329 2.329 4.192 0.466 5.124-0.931 2.795-4.658 6.521-9.316 12.577-13.508-7.453 20.029-16.303 35.866-27.482 48.908l-4.658 5.59c0 3.261-0.932 7.453-4.658 7.918-1.863 0.466-5.59-0.932-8.384 1.863-1.397 1.863 3.261 5.59-0.466 2.795-3.261-2.329-6.521 0-10.248 0.932-2.795 0.932 1.863 3.726 2.795 5.589 0.932 1.863 1.863 3.726 1.398 6.056l-5.124-5.59c-6.055 3.261-9.782 9.316-14.906 13.974-2.329 1.863-1.397 5.124-1.397 7.918-3.261 0-6.987-0.932-8.85 0.932-1.397 1.863-0.932 4.658-0.932 7.453-4.658-0.466-5.124-7.453-9.315-6.056-4.192 0.932-8.85 1.397-12.577 3.727 2.795 5.59-4.658 2.329-3.726 3.26-6.987-4.192-13.042-7.453-20.495-4.658-15.837-5.124-35.4-2.795-49.84-0.931 0-2.329 0.466-4.658-0.466-5.124-0.932 2.329-3.726 1.397-3.26 1.397-8.85-6.055-17.7-9.782-27.016-14.905-8.384 0.932-16.303-3.261-18.632-5.59-6.521-6.055-13.974-2.795-20.029-4.192-13.042-3.261-17.7-16.769-19.098-26.084-0.932-4.658-4.658-6.521-6.055-6.056-6.055-19.563-15.371-37.263-22.824-55.429-1.863-4.658-1.397-9.316-1.397-14.44 2.329 0.932 4.658 0.466 4.192-2.794-2.329-15.371-7.918-27.016-13.974-38.195 3.261-15.837 3.726-34.469 11.179-48.443 6.521-12.576 18.632-19.098 27.016-29.811 2.795-3.726 2.795-8.85 5.59-12.11 9.316-9.316 18.632-19.098 28.879-27.482 4.658-3.726 10.247 0 17.234-1.397 2.329-8.384 11.645-15.837 20.495-13.508 3.726 0.932 11.179-8.85 13.508-9.782 3.726-1.397 1.863 3.726 1.863 6.987 8.85-6.987 20.961-10.713 32.14-14.906" fill="#0d1724" fill-rule="nonzero" stroke="none" stroke-width="1" stroke-linecap="butt" stroke-linejoin="miter" stroke-miterlimit="10" stroke-dasharray="" stroke-dashoffset="0" font-family="none" font-weight="none" font-size="none" text-anchor="none" style="mix-blend-mode: normal" data-fill-palette-color="tertiary"></path></g><g transform="matrix(1,0,0,1,64,132.22729706768348)"><svg viewBox="0 0 192 95.54540586463301" height="95.54540586463301" width="192"><g><svg viewBox="0 0 192 95.54540586463301" height="95.54540586463301" width="192"><g><svg viewBox="0 0 192 95.54540586463301" height="95.54540586463301" width="192"><g transform="matrix(1,0,0,1,0,57.749409677788385)"><svg viewBox="0 0 192 37.79599618684462" height="37.79599618684462" width="192"><g><svg viewBox="0 0 192 37.79599618684462" height="37.79599618684462" width="192"><g><svg viewBox="0 0 192 37.79599618684462" height="37.79599618684462" width="192"><g transform="matrix(1,0,0,1,0,0)"><svg width="192" viewBox="3.1500000953674316 -40.849998474121094 209.77999877929688 41.29999923706055" height="37.79599618684462" data-palette-color="#0d1724"><path d="M8.8 0L3.15 0 3.15-40.5 8.8-40.5 8.8-23 19.2-23 19.2-40.5 24.85-40.5 24.85 0 19.2 0 19.2-18.95 8.8-18.95 8.8 0ZM38.75 0.4L38.75 0.4Q35.35 0.4 33.5-0.93 31.65-2.25 30.92-4.83 30.2-7.4 30.2-11.15L30.2-11.15 30.2-17.75Q30.2-21.6 30.95-24.15 31.7-26.7 33.57-28 35.45-29.3 38.75-29.3L38.75-29.3Q42.4-29.3 44.12-27.8 45.85-26.3 46.4-23.48 46.95-20.65 46.95-16.7L46.95-16.7 46.95-14.35 35.55-14.35 35.55-8.55Q35.55-6.8 35.87-5.7 36.2-4.6 36.92-4.08 37.65-3.55 38.8-3.55L38.8-3.55Q40-3.55 40.62-4.13 41.25-4.7 41.47-5.78 41.7-6.85 41.7-8.3L41.7-8.3 41.7-10.05 46.9-10.05 46.9-8.95Q46.9-4.6 45.05-2.1 43.2 0.4 38.75 0.4ZM35.55-18.8L35.55-17.25 41.7-17.25 41.7-19.85Q41.7-21.65 41.5-22.88 41.3-24.1 40.67-24.73 40.05-25.35 38.7-25.35L38.7-25.35Q37.4-25.35 36.72-24.75 36.05-24.15 35.8-22.73 35.55-21.3 35.55-18.8L35.55-18.8ZM56.99 0.4L56.99 0.4Q55.3 0.4 53.99-0.58 52.7-1.55 51.95-3.08 51.2-4.6 51.2-6.3L51.2-6.3Q51.2-9 52.09-10.85 52.99-12.7 54.57-13.98 56.14-15.25 58.22-16.2 60.3-17.15 62.59-18.05L62.59-18.05 62.59-20.1Q62.59-21.85 62.39-23 62.2-24.15 61.57-24.73 60.95-25.3 59.7-25.3L59.7-25.3Q58.59-25.3 57.92-24.8 57.24-24.3 56.95-23.38 56.64-22.45 56.64-21.2L56.64-21.2 56.64-19.75 51.34-19.95Q51.45-24.75 53.55-27.03 55.64-29.3 60.05-29.3L60.05-29.3Q64.34-29.3 66.14-26.95 67.94-24.6 67.94-20.15L67.94-20.15 67.94-6.95Q67.94-5.6 68.02-4.35 68.09-3.1 68.22-2.02 68.34-0.95 68.44 0L68.44 0 63.55 0Q63.39-0.8 63.17-2.02 62.95-3.25 62.84-4.25L62.84-4.25Q62.34-2.55 60.92-1.07 59.49 0.4 56.99 0.4ZM59.09-4.2L59.09-4.2Q59.89-4.2 60.59-4.65 61.3-5.1 61.84-5.68 62.39-6.25 62.59-6.6L62.59-6.6 62.59-14.8Q61.34-14.1 60.24-13.4 59.14-12.7 58.32-11.93 57.49-11.15 57.02-10.18 56.55-9.2 56.55-7.95L56.55-7.95Q56.55-6.2 57.2-5.2 57.84-4.2 59.09-4.2ZM78.94 0L73.59 0 73.59-40.5 78.94-40.5 78.94 0ZM92.24 0.4L92.24 0.4Q89.99 0.4 88.62-0.45 87.24-1.3 86.62-2.85 85.99-4.4 85.99-6.5L85.99-6.5 85.99-25.35 82.94-25.35 82.94-28.9 85.99-28.9 85.99-37.35 91.34-37.35 91.34-28.9 95.99-28.9 95.99-25.35 91.34-25.35 91.34-6.85Q91.34-5.15 91.89-4.42 92.44-3.7 93.99-3.7L93.99-3.7Q94.39-3.7 94.92-3.75 95.44-3.8 95.94-3.85L95.94-3.85 95.94 0.1Q94.94 0.25 94.09 0.33 93.24 0.4 92.24 0.4ZM105.44 0L100.09 0 100.09-40.5 105.44-40.5 105.44-25.9Q106.89-27.3 108.69-28.3 110.49-29.3 112.69-29.3L112.69-29.3Q114.39-29.3 115.31-28.4 116.24-27.5 116.61-26.15 116.99-24.8 116.99-23.4L116.99-23.4 116.99 0 111.64 0 111.64-21.85Q111.64-23.4 111.19-24.25 110.74-25.1 109.34-25.1L109.34-25.1Q108.39-25.1 107.36-24.55 106.34-24 105.44-23.2L105.44-23.2 105.44 0ZM144.23 0.45L144.23 0.45Q139.93 0.45 137.56-1.35 135.18-3.15 134.26-6.2 133.33-9.25 133.33-13L133.33-13 133.33-27.3Q133.33-31.4 134.26-34.45 135.18-37.5 137.56-39.18 139.93-40.85 144.23-40.85L144.23-40.85Q148.03-40.85 150.26-39.45 152.48-38.05 153.46-35.45 154.43-32.85 154.43-29.2L154.43-29.2 154.43-26 149.08-26 149.08-28.85Q149.08-31.1 148.86-32.83 148.63-34.55 147.63-35.5 146.63-36.45 144.28-36.45L144.28-36.45Q141.88-36.45 140.78-35.43 139.68-34.4 139.36-32.52 139.03-30.65 139.03-28.15L139.03-28.15 139.03-12.1Q139.03-9.05 139.53-7.28 140.03-5.5 141.18-4.75 142.33-4 144.28-4L144.28-4Q146.58-4 147.58-5.03 148.58-6.05 148.83-7.85 149.08-9.65 149.08-12.05L149.08-12.05 149.08-15.05 154.43-15.05 154.43-12.05Q154.43-8.35 153.53-5.53 152.63-2.7 150.43-1.13 148.23 0.45 144.23 0.45ZM164.58 0.4L164.58 0.4Q162.88 0.4 161.58-0.58 160.28-1.55 159.53-3.08 158.78-4.6 158.78-6.3L158.78-6.3Q158.78-9 159.68-10.85 160.58-12.7 162.16-13.98 163.73-15.25 165.81-16.2 167.88-17.15 170.18-18.05L170.18-18.05 170.18-20.1Q170.18-21.85 169.98-23 169.78-24.15 169.16-24.73 168.53-25.3 167.28-25.3L167.28-25.3Q166.18-25.3 165.5-24.8 164.83-24.3 164.53-23.38 164.23-22.45 164.23-21.2L164.23-21.2 164.23-19.75 158.93-19.95Q159.03-24.75 161.13-27.03 163.23-29.3 167.63-29.3L167.63-29.3Q171.93-29.3 173.73-26.95 175.53-24.6 175.53-20.15L175.53-20.15 175.53-6.95Q175.53-5.6 175.61-4.35 175.68-3.1 175.81-2.02 175.93-0.95 176.03 0L176.03 0 171.13 0Q170.98-0.8 170.75-2.02 170.53-3.25 170.43-4.25L170.43-4.25Q169.93-2.55 168.5-1.07 167.08 0.4 164.58 0.4ZM166.68-4.2L166.68-4.2Q167.48-4.2 168.18-4.65 168.88-5.1 169.43-5.68 169.98-6.25 170.18-6.6L170.18-6.6 170.18-14.8Q168.93-14.1 167.83-13.4 166.73-12.7 165.91-11.93 165.08-11.15 164.61-10.18 164.13-9.2 164.13-7.95L164.13-7.95Q164.13-6.2 164.78-5.2 165.43-4.2 166.68-4.2ZM186.18 0L180.83 0 180.83-28.9 186.18-28.9 186.18-24.8Q187.78-27.45 189.38-28.35 190.98-29.25 192.58-29.25L192.58-29.25Q192.78-29.25 192.95-29.25 193.13-29.25 193.43-29.2L193.43-29.2 193.43-23.3Q192.83-23.55 192.05-23.73 191.28-23.9 190.48-23.9L190.48-23.9Q189.23-23.9 188.2-23.33 187.18-22.75 186.18-21.1L186.18-21.1 186.18 0ZM204.73 0.4L204.73 0.4Q201.33 0.4 199.48-0.93 197.63-2.25 196.9-4.83 196.18-7.4 196.18-11.15L196.18-11.15 196.18-17.75Q196.18-21.6 196.93-24.15 197.68-26.7 199.55-28 201.43-29.3 204.73-29.3L204.73-29.3Q208.38-29.3 210.1-27.8 211.83-26.3 212.38-23.48 212.93-20.65 212.93-16.7L212.93-16.7 212.93-14.35 201.53-14.35 201.53-8.55Q201.53-6.8 201.85-5.7 202.18-4.6 202.9-4.08 203.63-3.55 204.78-3.55L204.78-3.55Q205.98-3.55 206.6-4.13 207.23-4.7 207.45-5.78 207.68-6.85 207.68-8.3L207.68-8.3 207.68-10.05 212.88-10.05 212.88-8.95Q212.88-4.6 211.03-2.1 209.18 0.4 204.73 0.4ZM201.53-18.8L201.53-17.25 207.68-17.25 207.68-19.85Q207.68-21.65 207.48-22.88 207.28-24.1 206.65-24.73 206.03-25.35 204.68-25.35L204.68-25.35Q203.38-25.35 202.7-24.75 202.03-24.15 201.78-22.73 201.53-21.3 201.53-18.8L201.53-18.8Z" opacity="1" transform="matrix(1,0,0,1,0,0)" fill="#0d1724" class="undefined-text-0" data-fill-palette-color="primary" id="text-0"></path></svg></g></svg></g></svg></g></svg></g><g transform="matrix(1,0,0,1,80.74486363958123,0)"><svg viewBox="0 0 30.510272720837545 52.23406673021927" height="52.23406673021927" width="30.510272720837545"><g><svg xmlns="http://www.w3.org/2000/svg" xmlns:xlink="http://www.w3.org/1999/xlink" version="1.1" x="0" y="0" viewBox="22.777484893798828 6.28000020980835 45.2595100402832 77.48499298095703" enable-background="new 0 0 90 90" xml:space="preserve" height="52.23406673021927" width="30.510272720837545" class="icon-icon-0" data-fill-palette-color="accent" id="icon-0"><path fill="#0d1724" d="M62.717 22.237c-1.157 0-2.157 0.38-2.947 1.022l0.061-9.6c0-2.855-2.401-5.179-5.353-5.179-1.48 0-2.821 0.586-3.79 1.529C50.034 7.862 48 6.28 45.57 6.28c-2.955 0-5.359 2.324-5.359 5.18l0.001 1.902c-0.944-0.827-2.179-1.345-3.546-1.345-2.935 0-5.322 2.323-5.322 5.173l-0.127 21.724c-2.15-0.973-4.943-0.098-6.245 0.726-2.438 1.539-2.568 5.143-1.722 15.19 0.579 6.886 1.263 11.312 2.146 13.861 0.008 0.038 0.019 0.077 0.032 0.115 3.178 9.227 11.097 14.959 20.667 14.959 12.196 0 21.749-9.708 21.749-22.096l0.193-34.253C68.037 24.561 65.65 22.237 62.717 22.237zM66.029 61.665c0 11.375-8.757 20.286-19.935 20.286-8.665 0-15.856-5.136-18.842-13.427-0.01-0.053-0.024-0.104-0.043-0.155-0.865-2.3-1.569-6.778-2.15-13.691-0.793-9.42-0.587-12.575 0.882-13.503 1.05-0.664 3.258-1.301 4.661-0.562 0.846 0.445 1.303 1.392 1.357 2.813 0.202 5.252 0.002 10.274 0 10.324-0.01 0.255 0.088 0.503 0.27 0.683 0.181 0.179 0.432 0.279 0.686 0.261 0.167-0.01 1.562-0.066 3.391 0.24 0.169 0.094 0.359 0.13 0.555 0.104 3.772 0.759 8.941 3.11 9.404 10.278v1.925c0 0.005-0.003 0.01-0.003 0.015v2.497c0 0.385 0.242 0.728 0.605 0.855 0.099 0.035 0.2 0.052 0.302 0.052 0.269 0 0.53-0.12 0.706-0.338 0.269-0.332 6.591-8.18 8.966-12.021 0.101-0.139 2.466-3.433 2.395-6.264-0.091-3.584-2.909-6.392-6.416-6.392-1.714 0-3.325 0.667-4.536 1.879-0.379 0.379-0.705 0.797-0.974 1.245-1.122-1.87-3.17-3.124-5.505-3.124-3.538 0-6.416 2.878-6.416 6.416 0 0.329 0.033 0.646 0.083 0.958-0.656-0.079-1.228-0.117-1.668-0.134 0.048-1.718 0.122-5.558-0.03-9.529-0.048-1.241-0.347-2.15-0.751-2.831l0.137-23.33c0-1.854 1.573-3.363 3.507-3.363 1.935 0 3.508 1.509 3.508 3.363 0 0.071 0.025 0.134 0.041 0.201l0.016 23.346c0 0.501 0.407 0.907 0.908 0.907h0c0.501 0 0.907-0.407 0.907-0.908l-0.02-29.283c0-1.855 1.589-3.364 3.543-3.364 1.954 0 3.542 1.509 3.542 3.371l0.016 2.041c0 0.018 0.009 0.032 0.011 0.049-0.001 0.033-0.011 0.064-0.011 0.098l-0.172 26.465c-0.004 0.501 0.4 0.91 0.901 0.913 0.518-0.032 0.91-0.4 0.913-0.901l0.172-26.471c0-1.855 1.586-3.364 3.535-3.364 1.951 0 3.538 1.509 3.538 3.358l-0.184 28.933c-0.003 0.501 0.4 0.91 0.901 0.913 0.002 0 0.004 0 0.006 0 0.499 0 0.904-0.402 0.907-0.901l0.096-15.012c0.011-0.057 0.034-0.11 0.034-0.171 0-1.552 0.771-3.363 2.94-3.363 1.933 0 3.506 1.509 3.506 3.359L66.029 61.665zM37.204 52.061c0-2.537 2.064-4.601 4.601-4.601 1.229 0 2.384 0.479 3.253 1.348 0.869 0.869 1.347 2.024 1.347 3.253h0.001c0 0.501 0.406 0.907 0.907 0.907s0.907-0.406 0.907-0.907c0-0.024 0-0.049 0-0.073 0.039-2.503 2.087-4.527 4.6-4.527 2.515 0 4.536 2.031 4.602 4.623 0.046 1.837-1.464 4.342-2.086 5.207-1.616 2.611-5.17 7.211-7.256 9.859l-0.002-1.893c-0.526-8.172-6.353-10.962-10.65-11.906C37.292 52.928 37.205 52.519 37.204 52.061z" data-fill-palette-color="accent"></path></svg></g></svg></g><g></g></svg></g></svg></g></svg></g></svg></g><defs></defs></svg><rect width="320" height="360" fill="none" stroke="none" visibility="hidden"></rect></g></svg></g></svg>